HIERARCHY
ROOT Hips
{
     OFFSET 13.64490 95.39250 24.42190
     CHANNELS 6 Xposition Yposition Zposition Zrotation Xrotation Yrotation
     JOINT Spine
     {
          OFFSET 0.00000 11.89050 -0.00000
          CHANNELS 3 Zrotation Xrotation Yrotation
          JOINT Spine1
          {
               OFFSET -0.00000 25.65740 0.12766
               CHANNELS 3 Zrotation Xrotation Yrotation
               JOINT HEad
               {
                    OFFSET 0.00000 8.73416 0.01134
                    CHANNELS 3 Zrotation Xrotation Yrotation
                    End Site
                    {
                         OFFSET -0.29000 12.77420 2.51395
                    }
               }
               JOINT LeftShoulder1
               {
                    OFFSET 8.99000 -0.36225 -0.22000
                    CHANNELS 3 Zrotation Xrotation Yrotation
                    JOINT LeftArm
                    {
                         OFFSET 10.28270 -0.00338 0.32212
                         CHANNELS 3 Zrotation Xrotation Yrotation
                         JOINT LeftForeArm
                         {
                              OFFSET 32.76690 0.09914 -1.42434
                              CHANNELS 3 Zrotation Xrotation Yrotation
                              JOINT LeftHand
                              {
                                   OFFSET 27.56430 0.08536 1.02216
                                   CHANNELS 3 Zrotation Xrotation Yrotation
                                   End Site
                                   {
                                        OFFSET 16.74430 -0.60000 1.50291
                                   }
                              }
                         }
                    }
               }
               JOINT RightShoulder
               {
                    OFFSET -8.99000 -0.36225 -0.22000
                    CHANNELS 3 Zrotation Xrotation Yrotation
                    JOINT RightArm
                    {
                         OFFSET -10.28270 -0.00338 0.32212
                         CHANNELS 3 Zrotation Xrotation Yrotation
                         JOINT RightForeArm
                         {
                              OFFSET -32.89710 0.09914 -1.42434
                              CHANNELS 3 Zrotation Xrotation Yrotation
                              JOINT RightHand
                              {
                                   OFFSET -27.49210 0.08536 1.02216
                                   CHANNELS 3 Zrotation Xrotation Yrotation
                                   End Site
                                   {
                                        OFFSET -16.63120 -0.60000 1.50291
                                   }
                              }
                         }
                    }
               }
          }
     }
     JOINT LeftUpLeg
     {
          OFFSET 8.94580 -8.66707 0.10165
          CHANNELS 3 Zrotation Xrotation Yrotation
          JOINT LeftLeg
          {
               OFFSET 0.00000 -44.42270 1.37270
               CHANNELS 3 Zrotation Xrotation Yrotation
               JOINT LeftFoot
               {
                    OFFSET -0.25355 -42.09240 -1.46059
                    CHANNELS 3 Zrotation Xrotation Yrotation
                    JOINT LeftToes
                    {
                         OFFSET -0.04000 -4.41509 8.49910
                         CHANNELS 3 Zrotation Xrotation Yrotation
                         End Site
                         {
                              OFFSET 0.08000 -0.04745 9.77979
                         }
                    }
               }
          }
     }
     JOINT RightUpLeg
     {
          OFFSET -8.94580 -8.66707 0.10165
          CHANNELS 3 Zrotation Xrotation Yrotation
          JOINT RightLeg
          {
               OFFSET 0.00000 -44.42270 1.37270
               CHANNELS 3 Zrotation Xrotation Yrotation
               JOINT RightFoot
               {
                    OFFSET 0.25355 -42.09240 -1.46059
                    CHANNELS 3 Zrotation Xrotation Yrotation
                    JOINT RightToes
                    {
                         OFFSET 0.04000 -4.41509 8.49910
                         CHANNELS 3 Zrotation Xrotation Yrotation
                         End Site
                         {
                              OFFSET -0.08000 -0.13745 9.77979
                         }
                    }
               }
          }
     }
}
MOTION
Frames: 8
Frame Time: 0.01667
-3.68396 94.35100 28.85570 -14.19710 8.65507 -126.02800 -3.93708 12.14740 -3.91363 -2.15219 23.52880 -6.97934 11.10650 -10.58930 -19.74830 -0.00000 -0.00000 0.00000 -82.72720 -38.31780 -74.40600 -20.92590 32.33190 -81.68970 17.16560 7.61207 -11.58230 24.12840 0.90514 1.15502 76.37700 -9.29678 66.92590 16.56460 33.76320 103.95400 14.88390 11.51880 7.64728 13.38140 -14.88750 -7.62353 -31.52640 28.31040 75.15740 3.26888 13.24510 -0.68900 -3.50072 -40.39360 -68.37120 -8.83647 -2.53497 11.46860 29.17900 29.06930 -35.82770 -47.93380 12.07330 8.70032 45.50770 -68.71310 59.42460 
-5.10857 94.06800 29.05820 -13.37170 9.69166 -130.34100 -2.63427 12.11740 -4.11482 -2.28371 23.49280 -6.73104 10.57470 -10.06520 -18.34000 -0.00000 -0.00000 0.00000 -83.38110 -38.85050 -74.80840 -21.10910 33.16280 -81.67250 17.53380 7.50895 -11.92410 24.21380 0.98354 1.44683 76.47710 -9.40498 66.73620 16.55880 33.83860 103.98800 14.85710 11.52860 7.73987 13.18880 -14.76470 -8.32607 -28.81050 23.62250 70.99640 3.01065 13.53680 -0.65142 -2.78213 -39.54820 -66.90740 -8.65430 -2.84559 11.42280 29.82400 30.14370 -37.04860 -47.67300 11.48010 8.38363 45.53850 -69.03240 59.03060 
-6.60953 93.83960 29.10520 -12.46990 10.56630 -134.80299 -1.47266 11.98510 -4.20277 -2.48604 23.36670 -6.41363 10.03650 -9.55232 -16.82750 -0.00000 -0.00000 0.00000 -84.19930 -39.64120 -75.28720 -21.39610 34.02750 -81.65580 17.71570 7.42781 -12.28660 24.26340 1.02796 1.61124 76.50800 -9.39629 66.56330 16.51510 33.88370 104.04300 14.86490 11.54670 7.86684 13.23400 -14.23550 -8.77856 -26.25390 18.63960 66.61090 2.88447 14.12720 -0.64649 -1.89807 -38.42280 -65.04230 -8.64901 -2.98778 11.34540 30.59290 30.95080 -38.51200 -47.44220 10.59970 7.94922 44.76400 -69.13600 57.85860 
-8.17050 93.65670 29.01190 -11.49950 11.30200 -139.38000 -0.45999 11.78560 -4.19573 -2.69645 23.17890 -6.06083 9.47668 -9.13101 -15.19310 -0.00000 -0.00000 0.00000 -85.40070 -40.76270 -75.97580 -21.87960 35.11390 -81.57460 17.80310 7.37056 -12.57790 24.18270 1.04901 1.70190 76.57060 -9.26770 66.46240 16.44830 33.91220 104.09700 14.91630 11.55700 7.90249 13.56720 -13.30390 -9.10921 -24.05420 13.31550 62.43530 2.89937 15.01120 -0.67689 -1.00726 -37.20990 -62.99850 -8.80335 -2.97102 11.21060 31.40440 31.52030 -39.95720 -47.45690 9.56532 7.49532 43.42960 -69.18800 55.99710 
-9.77645 93.51190 28.79880 -10.48070 11.91910 -144.03300 0.39319 11.55590 -4.11214 -2.86834 22.96350 -5.69342 8.86971 -8.85137 -13.43030 -0.00000 -0.00000 0.00000 -86.95490 -42.12210 -76.90150 -22.49590 36.38640 -81.42880 17.93350 7.32325 -12.75830 23.93820 1.05034 1.73793 76.72900 -9.02549 66.47590 16.39000 33.94430 104.13500 15.04120 11.54970 7.75199 14.14250 -12.00750 -9.34195 -22.22410 7.77196 58.64680 2.98295 16.07280 -0.72728 -0.15832 -35.95400 -60.88740 -9.10050 -2.82027 11.04200 32.19110 31.89900 -41.08860 -47.82510 8.49890 7.08634 41.62070 -69.31090 53.37760 
-11.41950 93.39080 28.46750 -9.44163 12.44610 -148.68100 1.07801 11.33800 -3.99647 -2.97152 22.76010 -5.34449 8.17697 -8.67642 -11.52610 -0.00000 -0.00000 0.00000 -88.53150 -43.50770 -77.90090 -23.03560 37.54330 -81.31460 18.15310 7.27411 -12.85900 23.56130 1.04219 1.75457 76.98690 -8.72529 66.62080 16.33730 33.99310 104.14900 15.25110 11.52770 7.43421 14.81570 -10.51430 -9.38907 -20.65680 2.49687 55.08080 2.90199 17.00390 -0.73971 0.68721 -34.53380 -58.71590 -9.50161 -2.57756 10.87730 32.89490 32.19570 -41.78140 -48.39400 7.50992 6.73595 39.56310 -69.50840 50.29160 
-13.11190 93.24320 27.97130 -8.41786 12.89680 -153.18100 1.58188 11.16500 -3.93467 -3.00835 22.58270 -5.06208 7.37933 -8.49635 -9.49056 -0.00000 -0.00000 0.00000 -89.92250 -44.86080 -78.82050 -23.40510 38.48780 -81.29030 18.45940 7.21779 -12.91790 23.14170 1.03219 1.76981 77.28160 -8.42200 66.86220 16.26960 34.05760 104.13200 15.51810 11.50400 7.07201 15.30950 -9.58898 -9.14845 -19.23130 -0.83025 51.51880 1.99343 17.10710 -0.54732 1.53643 -32.84340 -56.59840 -9.97920 -2.31500 10.73620 33.53450 32.61960 -42.23870 -48.84120 6.59396 6.38925 37.71460 -69.75100 47.41540 
-14.77640 93.16350 27.38370 -7.41560 13.30640 -157.51700 1.97669 11.00420 -3.89452 -2.97867 22.40870 -4.86872 6.50259 -8.22103 -7.40604 -0.00000 -0.00000 0.00000 -91.19250 -46.23840 -79.66430 -23.64420 39.37510 -81.34200 18.82590 7.15882 -12.93320 22.76490 1.00066 1.69263 77.51970 -8.03960 67.12820 16.14780 34.09080 104.09500 15.77560 11.49100 6.80277 15.63440 -9.02832 -8.77837 -17.88640 -2.67767 48.10040 0.71115 16.45800 -0.26341 2.32486 -30.96280 -54.79010 -10.52050 -1.95688 10.67340 33.99850 32.86020 -42.48220 -49.12290 5.98735 6.15287 36.54370 -70.01900 45.45040 
